<?xml version="1.0" encoding="UTF-8" standalone="no"?>
<svg
   xmlns:dc="http://purl.org/dc/elements/1.1/"
   xmlns:cc="http://creativecommons.org/ns#"
   xmlns:rdf="http://www.w3.org/1999/02/22-rdf-syntax-ns#"
   xmlns:svg="http://www.w3.org/2000/svg"
   xmlns="http://www.w3.org/2000/svg"
   xmlns:sodipodi="http://sodipodi.sourceforge.net/DTD/sodipodi-0.dtd"
   xmlns:inkscape="http://www.inkscape.org/namespaces/inkscape"
   viewBox="0 0 1024 120"
   version="1.1"
   id="svg129"
   sodipodi:docname="main-footer.svg"
   inkscape:version="0.92.1 r15371">
  <metadata
     id="metadata133">
    <rdf:RDF>
      <cc:Work
         rdf:about="">
        <dc:format>image/svg+xml</dc:format>
        <dc:type
           rdf:resource="http://purl.org/dc/dcmitype/StillImage" />
      </cc:Work>
    </rdf:RDF>
  </metadata>
  <sodipodi:namedview
     pagecolor="#ffffff"
     bordercolor="#666666"
     borderopacity="1"
     objecttolerance="10"
     gridtolerance="10"
     guidetolerance="10"
     inkscape:pageopacity="0"
     inkscape:pageshadow="2"
     inkscape:window-width="1920"
     inkscape:window-height="1042"
     id="namedview131"
     showgrid="false"
     inkscape:zoom="0.61425781"
     inkscape:cx="263.73291"
     inkscape:cy="60"
     inkscape:window-x="0"
     inkscape:window-y="19"
     inkscape:window-maximized="1"
     inkscape:current-layer="svg129" />
  <defs
     id="defs7">
    <style
       id="style2">.a{fill:none;}.b{fill:#fff;}.c{fill:#e76c81;}.d{clip-path:url(#a);}.e{fill:#e95471;}.f{fill:#d2d4d5;}.g{fill:#838689;}.h{fill:#53585f;}</style>
    <clipPath
       id="a">
      <rect
         class="a"
         x="343"
         y="1.435"
         width="338"
         height="92"
         id="rect4" />
    </clipPath>
  </defs>
  <title
     id="title9">main-footer</title>
  <rect
     class="b"
     width="1028"
     height="120"
     id="rect11"
     x="0"
     y="0"
     style="fill:#ffffff;stroke-width:1.00195134" />
  <rect
     class="c"
     width="1028"
     height="3.184"
     id="rect13"
     x="0"
     y="0"
     style="fill:#e76c81;stroke-width:1.00195122" />
  <g
     class="d"
     clip-path="url(#a)"
     id="g49"
     transform="translate(2.8889465)">
    <path
       class="e"
       d="m 408.277,21.405 a 13.934,13.934 0 0 0 -19.608,2.218 l -6.551,8.145 a 3.335,3.335 0 0 0 2.573,5.43 h 19.168 a 5.636,5.636 0 0 1 5.5,4.488 l 0.115,0.546 0.892,-1.11 a 14.062,14.062 0 0 0 -2.093,-19.717"
       id="path15"
       inkscape:connector-curvature="0"
       style="fill:#e95471" />
    <path
       class="f"
       d="m 379.144,62.045 a 13.665,13.665 0 0 1 -8.636,-3.056 14.061,14.061 0 0 1 -2.093,-19.716 l 0.893,-1.11 0.115,0.547 a 5.637,5.637 0 0 0 5.5,4.487 H 394.1 a 3.334,3.334 0 0 1 2.572,5.429 l -6.551,8.145 a 14.075,14.075 0 0 1 -10.973,5.274"
       id="path17"
       inkscape:connector-curvature="0"
       style="fill:#d2d4d5" />
    <path
       class="g"
       d="m 466.869,48.846 v 14.36 c 0,4.506 3.305,7.829 9.146,7.829 5.5,0 9.09,-3.024 9.09,-7.954 V 48.846 h -3.193 v 13.32 c 0,4.677 -1.986,6.186 -5.592,6.186 -3.782,0 -5.267,-1.932 -5.267,-6.279 V 48.845 h -4.184"
       id="path19"
       inkscape:connector-curvature="0"
       style="fill:#838689" />
    <rect
       class="g"
       x="543.16699"
       y="54.464001"
       width="3.9679999"
       height="16.229"
       id="rect21"
       style="fill:#838689" />
    <path
       class="g"
       d="m 545.151,52.591 a 2.372,2.372 0 1 0 -2.356,-2.372 2.364,2.364 0 0 0 2.356,2.372"
       id="path23"
       inkscape:connector-curvature="0"
       style="fill:#838689" />
    <path
       class="g"
       d="m 589.315,54.121 c -4.853,0 -7.7,3.464 -7.7,8.426 V 62.7 c 0,5.149 3.226,8.333 8.238,8.333 a 11.263,11.263 0 0 0 5.927,-1.6 v -2.77 a 9.434,9.434 0 0 1 -5.873,2.063 c -2.314,0 -4.015,-1.609 -4.015,-5.27 h 10.848 c 0,-5.809 -2.188,-9.336 -7.422,-9.336 m -3.379,7.026 c 0.126,-2.843 1.012,-4.716 3.379,-4.716 2.254,0 3.074,2.072 3.145,4.716 z"
       id="path25"
       inkscape:connector-curvature="0"
       style="fill:#838689" />
    <path
       class="g"
       d="m 638.087,54.121 c -4.852,0 -7.7,3.464 -7.7,8.426 V 62.7 c 0,5.149 3.226,8.333 8.237,8.333 a 11.265,11.265 0 0 0 5.927,-1.6 v -2.77 a 9.429,9.429 0 0 1 -5.873,2.063 c -2.313,0 -4.013,-1.609 -4.013,-5.27 h 10.845 c 0,-5.809 -2.189,-9.336 -7.423,-9.336 m -3.377,7.026 c 0.127,-2.843 1.011,-4.716 3.377,-4.716 2.256,0 3.076,2.072 3.146,4.716 z"
       id="path27"
       inkscape:connector-curvature="0"
       style="fill:#838689" />
    <path
       class="g"
       d="m 574.575,66.3 v -9.527 h 4.675 v -2.309 h -4.675 v -4.806 h -3.967 v 4.806 h -2.165 v 2.309 h 2.165 v 9.776 c 0,2.63 2.143,4.486 5.318,4.486 a 5.824,5.824 0 0 0 3.361,-0.854 v -2.022 a 6.728,6.728 0 0 1 -2.474,0.442 2.138,2.138 0 0 1 -2.237,-2.3"
       id="path29"
       inkscape:connector-curvature="0"
       style="fill:#838689" />
    <path
       class="g"
       d="m 408.13,54.049 c 0,-1.785 1.22,-2.831 3.59,-2.831 a 10.6,10.6 0 0 1 6.4,2.116 v -3.518 a 16.517,16.517 0 0 0 -6.408,-1.282 c -4.723,0 -8.079,2.343 -8.079,5.866 0,7.221 11.011,6.054 11.011,10.907 0,1.928 -1.4,3.013 -3.426,3.013 a 12.1,12.1 0 0 1 -7.54,-3.091 v 3.624 A 13.23,13.23 0 0 0 411.509,71 c 4.638,0 7.631,-2.445 7.631,-6.1 0,-7.718 -11.01,-6.2 -11.01,-10.855"
       id="path31"
       inkscape:connector-curvature="0"
       style="fill:#838689" />
    <path
       class="g"
       d="m 507.875,55.273 c 0,-4.757 -3.964,-6.428 -7.789,-6.428 h -9.669 v 21.847 h 4.183 v -8.707 h 3.992 l 4.937,8.707 h 4.819 l -5.217,-9.212 a 6.17,6.17 0 0 0 4.742,-6.206 M 494.6,51.548 h 4.1 c 2.8,0 4.68,1.279 4.68,3.923 0,2.821 -2.235,3.813 -4.679,3.813 h -4.1 z"
       id="path33"
       inkscape:connector-curvature="0"
       style="fill:#838689" />
    <polyline
       class="g"
       points="458.474 70.692 463.706 70.692 454.647 58.536 463.188 48.846 459.624 48.846 448.998 60.902 448.998 48.846 444.814 48.846 444.814 70.692 448.998 70.692 448.998 64.946 451.813 61.752 458.474 70.692"
       id="polyline35"
       style="fill:#838689" />
    <path
       class="g"
       d="m 437.351,70.692 h 4.488 l -8.477,-22 h -4.252 l -8.476,22 h 3.424 l 2.228,-5.784 h 8.836 l 2.228,5.784 m -10.03,-8.468 3.38,-8.784 3.384,8.784 z"
       id="path37"
       inkscape:connector-curvature="0"
       style="fill:#838689" />
    <path
       class="g"
       d="m 560.759,54.121 a 7.211,7.211 0 0 0 -5.269,2.745 v -2.4 h -3.968 v 16.225 h 3.968 V 59.325 a 4.326,4.326 0 0 1 3.62,-2.482 2.348,2.348 0 0 1 2.377,2.366 v 11.482 h 3.967 V 58.322 c 0,-1.983 -1.371,-4.2 -4.7,-4.2"
       id="path39"
       inkscape:connector-curvature="0"
       style="fill:#838689" />
    <path
       class="g"
       d="m 622.305,54.121 a 7.213,7.213 0 0 0 -5.269,2.745 v -2.4 h -3.968 v 16.225 h 3.968 V 59.325 a 4.329,4.329 0 0 1 3.62,-2.482 2.348,2.348 0 0 1 2.377,2.366 V 70.691 H 627 V 58.322 c 0,-1.983 -1.372,-4.2 -4.7,-4.2"
       id="path41"
       inkscape:connector-curvature="0"
       style="fill:#838689" />
    <path
       class="g"
       d="m 604.284,57.33 v -2.866 h -3.968 v 16.228 h 3.968 V 59.8 a 7.48,7.48 0 0 1 5.988,-2.466 v -3.026 a 7.364,7.364 0 0 0 -5.988,3.022"
       id="path43"
       inkscape:connector-curvature="0"
       style="fill:#838689" />
    <path
       class="g"
       d="m 527.237,70.692 h 4.488 l -8.477,-22 H 519 l -8.476,22 h 3.424 l 2.229,-5.784 h 8.836 l 2.228,5.784 m -10.031,-8.468 3.384,-8.784 3.384,8.784 z"
       id="path45"
       inkscape:connector-curvature="0"
       style="fill:#838689" />
    <path
       class="g"
       d="m 653.89,66.3 v -9.527 h 4.674 v -2.309 h -4.674 v -4.806 h -3.968 v 4.806 h -2.164 v 2.309 h 2.164 v 9.776 c 0,2.63 2.143,4.486 5.318,4.486 a 5.819,5.819 0 0 0 3.361,-0.854 v -2.022 a 6.721,6.721 0 0 1 -2.474,0.442 2.139,2.139 0 0 1 -2.237,-2.3"
       id="path47"
       inkscape:connector-curvature="0"
       style="fill:#838689" />
  </g>
  <path
     class="h"
     d="M409.842,97.662a8.771,8.771,0,0,1-1.23-2.148,6.743,6.743,0,0,1-.127-4.775,9.36,9.36,0,0,1,1.357-2.461h.63q-.59,1.015-.781,1.45a7.976,7.976,0,0,0-.469,1.406,8.184,8.184,0,0,0-.21,1.836,8.809,8.809,0,0,0,1.46,4.692Z"
     id="path51" />
  <path
     class="h"
     d="m 416.78448,93.048 0.947,0.239 a 3.186,3.186 0 0 1 -1.072,1.78 2.953,2.953 0 0 1 -1.892,0.612 3.393,3.393 0 0 1 -1.882,-0.472 2.93,2.93 0 0 1 -1.1,-1.364 4.858,4.858 0 0 1 -0.379,-1.919 4.219,4.219 0 0 1 0.428,-1.951 2.917,2.917 0 0 1 1.215,-1.264 3.545,3.545 0 0 1 1.736,-0.433 2.937,2.937 0 0 1 1.807,0.547 2.839,2.839 0 0 1 1.021,1.538 l -0.933,0.22 a 2.214,2.214 0 0 0 -0.723,-1.138 1.927,1.927 0 0 0 -1.191,-0.356 2.313,2.313 0 0 0 -1.379,0.4 2.081,2.081 0 0 0 -0.779,1.063 4.279,4.279 0 0 0 -0.225,1.374 4.39,4.39 0 0 0 0.266,1.595 1.989,1.989 0 0 0 0.828,1.018 2.319,2.319 0 0 0 1.216,0.337 2.04,2.04 0 0 0 1.348,-0.459 2.343,2.343 0 0 0 0.743,-1.367 z"
     id="path53"
     inkscape:connector-curvature="0"
     style="fill:#53585f" />
  <path
     class="h"
     d="m 419.29485,97.662 h -0.63 a 8.809,8.809 0 0 0 1.46,-4.692 8.038,8.038 0 0 0 -0.21,-1.821 7.655,7.655 0 0 0 -0.464,-1.406 16.408,16.408 0 0 0 -0.786,-1.465 h 0.63 a 9.36,9.36 0 0 1 1.357,2.461 6.723,6.723 0 0 1 -0.13,4.775 8.925,8.925 0 0 1 -1.227,2.148 z"
     id="path55"
     inkscape:connector-curvature="0"
     style="fill:#53585f" />
  <path
     class="h"
     d="m 427.34022,93.048 0.947,0.239 a 3.186,3.186 0 0 1 -1.072,1.78 2.953,2.953 0 0 1 -1.892,0.612 3.393,3.393 0 0 1 -1.882,-0.472 2.93,2.93 0 0 1 -1.1,-1.364 4.858,4.858 0 0 1 -0.379,-1.919 4.219,4.219 0 0 1 0.428,-1.951 2.917,2.917 0 0 1 1.208,-1.263 3.545,3.545 0 0 1 1.736,-0.433 2.937,2.937 0 0 1 1.807,0.547 2.839,2.839 0 0 1 1.021,1.538 l -0.933,0.22 a 2.214,2.214 0 0 0 -0.723,-1.138 1.927,1.927 0 0 0 -1.191,-0.356 2.313,2.313 0 0 0 -1.379,0.4 2.081,2.081 0 0 0 -0.779,1.063 4.279,4.279 0 0 0 -0.225,1.374 4.39,4.39 0 0 0 0.266,1.595 1.989,1.989 0 0 0 0.828,1.018 2.319,2.319 0 0 0 1.216,0.337 2.04,2.04 0 0 0 1.348,-0.459 2.343,2.343 0 0 0 0.75,-1.368 z"
     id="path57"
     inkscape:connector-curvature="0"
     style="fill:#53585f" />
  <path
     class="h"
     d="m 427.97524,92.965 a 2.672,2.672 0 0 1 0.8,-2.134 2.415,2.415 0 0 1 1.631,-0.576 2.324,2.324 0 0 1 1.748,0.7 2.666,2.666 0 0 1 0.679,1.936 3.441,3.441 0 0 1 -0.3,1.574 2.133,2.133 0 0 1 -0.875,0.892 2.538,2.538 0 0 1 -1.252,0.317 2.329,2.329 0 0 1 -1.76,-0.7 2.786,2.786 0 0 1 -0.671,-2.009 z m 0.9,0 a 2.205,2.205 0 0 0 0.435,1.491 1.447,1.447 0 0 0 2.183,0 2.259,2.259 0 0 0 0.435,-1.519 2.141,2.141 0 0 0 -0.437,-1.458 1.449,1.449 0 0 0 -2.18,0 2.2,2.2 0 0 0 -0.433,1.486 z"
     id="path59"
     inkscape:connector-curvature="0"
     style="fill:#53585f" />
  <path
     class="h"
     d="m 433.42861,97.545 v -7.173 h 0.8 v 0.674 a 1.986,1.986 0 0 1 0.64,-0.594 1.767,1.767 0 0 1 0.864,-0.2 2.053,2.053 0 0 1 1.172,0.342 2.092,2.092 0 0 1 0.767,0.965 3.508,3.508 0 0 1 0.259,1.364 3.446,3.446 0 0 1 -0.286,1.433 2.173,2.173 0 0 1 -1.975,1.316 1.654,1.654 0 0 1 -0.789,-0.186 1.8,1.8 0 0 1 -0.573,-0.469 v 2.524 z m 0.8,-4.551 a 2.255,2.255 0 0 0 0.405,1.479 1.243,1.243 0 0 0 0.981,0.479 1.271,1.271 0 0 0 1,-0.5 2.355,2.355 0 0 0 0.417,-1.535 2.293,2.293 0 0 0 -0.407,-1.484 1.228,1.228 0 0 0 -0.975,-0.493 1.269,1.269 0 0 0 -0.994,0.524 2.357,2.357 0 0 0 -0.432,1.53 z"
     id="path61"
     inkscape:connector-curvature="0"
     style="fill:#53585f" />
  <path
     class="h"
     d="m 439.0467,97.555 -0.1,-0.825 a 1.973,1.973 0 0 0 0.5,0.078 0.961,0.961 0 0 0 0.469,-0.1 0.8,0.8 0 0 0 0.288,-0.273 4.3,4.3 0 0 0 0.269,-0.654 c 0.017,-0.049 0.042,-0.12 0.078,-0.215 l -1.968,-5.2 h 0.947 l 1.079,3 q 0.209,0.571 0.376,1.2 a 11.826,11.826 0 0 1 0.361,-1.182 l 1.108,-3.022 h 0.879 l -1.973,5.273 a 10.44,10.44 0 0 1 -0.493,1.177 1.737,1.737 0 0 1 -0.537,0.638 1.271,1.271 0 0 1 -0.723,0.2 1.769,1.769 0 0 1 -0.56,-0.095 z"
     id="path63"
     inkscape:connector-curvature="0"
     style="fill:#53585f" />
  <path
     class="h"
     d="m 444.82857,95.558 v -5.186 h 0.791 v 0.786 a 2.134,2.134 0 0 1 0.56,-0.728 0.972,0.972 0 0 1 0.563,-0.176 1.717,1.717 0 0 1 0.9,0.283 l -0.3,0.815 a 1.258,1.258 0 0 0 -0.645,-0.19 0.833,0.833 0 0 0 -0.518,0.174 0.936,0.936 0 0 0 -0.327,0.48 3.423,3.423 0 0 0 -0.146,1.025 v 2.715 z"
     id="path65"
     inkscape:connector-curvature="0"
     style="fill:#53585f" />
  <path
     class="h"
     d="M 451.07394,89.41 V 88.4 h 0.879 v 1.01 z m 0,6.147 v -5.185 h 0.879 v 5.186 z"
     id="path67"
     inkscape:connector-curvature="0"
     style="fill:#53585f" />
  <path
     class="h"
     d="m 454.67665,95.987 0.854,0.127 a 0.814,0.814 0 0 0 0.3,0.576 1.46,1.46 0 0 0 0.894,0.244 1.567,1.567 0 0 0 0.942,-0.244 1.2,1.2 0 0 0 0.449,-0.684 5.609,5.609 0 0 0 0.063,-1.128 1.808,1.808 0 0 1 -1.436,0.679 1.956,1.956 0 0 1 -1.655,-0.771 2.971,2.971 0 0 1 -0.586,-1.851 3.453,3.453 0 0 1 0.269,-1.37 2.146,2.146 0 0 1 0.778,-0.969 2.108,2.108 0 0 1 1.2,-0.342 1.858,1.858 0 0 1 1.514,0.742 v -0.625 h 0.811 v 4.482 a 4.264,4.264 0 0 1 -0.246,1.717 1.816,1.816 0 0 1 -0.781,0.8 2.713,2.713 0 0 1 -1.316,0.293 2.489,2.489 0 0 1 -1.5,-0.417 1.415,1.415 0 0 1 -0.554,-1.259 z m 0.728,-3.115 a 2.247,2.247 0 0 0 0.405,1.489 1.287,1.287 0 0 0 1.016,0.469 1.3,1.3 0 0 0 1.016,-0.466 2.179,2.179 0 0 0 0.41,-1.463 2.128,2.128 0 0 0 -0.422,-1.436 1.307,1.307 0 0 0 -1.019,-0.483 1.271,1.271 0 0 0 -1,0.476 2.117,2.117 0 0 0 -0.407,1.414 z"
     id="path69"
     inkscape:connector-curvature="0"
     style="fill:#53585f" />
  <path
     class="h"
     d="M 459.95593,95.558 V 88.4 h 0.879 v 2.568 a 1.962,1.962 0 0 1 1.553,-0.713 2.106,2.106 0 0 1 1,0.227 1.334,1.334 0 0 1 0.607,0.628 2.873,2.873 0 0 1 0.184,1.162 v 3.286 h -0.879 v -3.287 a 1.365,1.365 0 0 0 -0.285,-0.96 1.068,1.068 0 0 0 -0.809,-0.3 1.422,1.422 0 0 0 -0.734,0.2 1.143,1.143 0 0 0 -0.491,0.55 2.523,2.523 0 0 0 -0.146,0.957 v 2.837 z"
     id="path71"
     inkscape:connector-curvature="0"
     style="fill:#53585f" />
  <path
     class="h"
     d="m 468.48649,94.771 0.127,0.776 a 3.281,3.281 0 0 1 -0.664,0.078 1.506,1.506 0 0 1 -0.742,-0.151 0.845,0.845 0 0 1 -0.371,-0.4 3.162,3.162 0 0 1 -0.111,-1.035 v -2.983 h -0.645 v -0.684 h 0.645 v -1.284 l 0.874,-0.527 v 1.812 h 0.884 v 0.684 h -0.884 v 3.032 a 1.555,1.555 0 0 0 0.046,0.483 0.368,0.368 0 0 0 0.152,0.171 0.585,0.585 0 0 0 0.3,0.063 2.909,2.909 0 0 0 0.389,-0.035 z"
     id="path73"
     inkscape:connector-curvature="0"
     style="fill:#53585f" />
  <path
     class="h"
     d="m 473.94336,95.558 h -0.879 v -5.6 a 4.548,4.548 0 0 1 -0.833,0.605 5.814,5.814 0 0 1 -0.925,0.454 v -0.85 a 5.321,5.321 0 0 0 1.289,-0.84 3.3,3.3 0 0 0 0.781,-0.957 h 0.566 z"
     id="path75"
     inkscape:connector-curvature="0"
     style="fill:#53585f" />
  <path
     class="h"
     d="m 475.67072,93.9 0.845,-0.078 a 1.462,1.462 0 0 0 0.41,0.864 1.129,1.129 0 0 0 0.776,0.269 1.34,1.34 0 0 0 0.711,-0.186 1.523,1.523 0 0 0 0.5,-0.5 2.93,2.93 0 0 0 0.327,-0.838 4.414,4.414 0 0 0 0.132,-1.074 c 0,-0.039 0,-0.1 0,-0.176 a 2.021,2.021 0 0 1 -0.72,0.682 1.964,1.964 0 0 1 -0.989,0.261 2,2 0 0 1 -1.5,-0.645 2.359,2.359 0 0 1 -0.615,-1.7 2.416,2.416 0 0 1 0.642,-1.753 2.148,2.148 0 0 1 1.609,-0.664 2.3,2.3 0 0 1 1.277,0.376 2.366,2.366 0 0 1 0.879,1.071 5.305,5.305 0 0 1 0.3,2.015 6.519,6.519 0 0 1 -0.3,2.185 2.553,2.553 0 0 1 -0.887,1.238 2.291,2.291 0 0 1 -1.379,0.425 1.89,1.89 0 0 1 -2.012,-1.777 z m 3.6,-3.159 a 1.715,1.715 0 0 0 -0.4,-1.2 1.261,1.261 0 0 0 -0.969,-0.444 1.337,1.337 0 0 0 -1.021,0.479 1.773,1.773 0 0 0 -0.435,1.24 1.532,1.532 0 0 0 0.412,1.11 1.361,1.361 0 0 0 1.019,0.428 1.3,1.3 0 0 0 1,-0.428 1.677,1.677 0 0 0 0.392,-1.183 z"
     id="path77"
     inkscape:connector-curvature="0"
     style="fill:#53585f" />
  <path
     class="h"
     d="m 480.94858,93.9 0.845,-0.078 a 1.462,1.462 0 0 0 0.41,0.864 1.129,1.129 0 0 0 0.776,0.269 1.34,1.34 0 0 0 0.711,-0.186 1.523,1.523 0 0 0 0.5,-0.5 2.93,2.93 0 0 0 0.327,-0.838 4.414,4.414 0 0 0 0.132,-1.074 c 0,-0.039 0,-0.1 0,-0.176 a 2.021,2.021 0 0 1 -0.72,0.682 1.964,1.964 0 0 1 -0.989,0.261 2,2 0 0 1 -1.5,-0.645 2.359,2.359 0 0 1 -0.615,-1.7 2.416,2.416 0 0 1 0.642,-1.753 2.148,2.148 0 0 1 1.609,-0.664 2.3,2.3 0 0 1 1.277,0.376 2.366,2.366 0 0 1 0.879,1.071 5.305,5.305 0 0 1 0.3,2.015 6.519,6.519 0 0 1 -0.3,2.185 2.553,2.553 0 0 1 -0.887,1.238 2.291,2.291 0 0 1 -1.379,0.425 1.89,1.89 0 0 1 -2.012,-1.777 z m 3.6,-3.159 a 1.715,1.715 0 0 0 -0.4,-1.2 1.261,1.261 0 0 0 -0.969,-0.444 1.337,1.337 0 0 0 -1.021,0.479 1.773,1.773 0 0 0 -0.435,1.24 1.532,1.532 0 0 0 0.412,1.11 1.361,1.361 0 0 0 1.019,0.428 1.3,1.3 0 0 0 1,-0.428 1.677,1.677 0 0 0 0.393,-1.183 z"
     id="path79"
     inkscape:connector-curvature="0"
     style="fill:#53585f" />
  <path
     class="h"
     d="m 490.69825,90.152 -0.874,0.068 a 1.653,1.653 0 0 0 -0.332,-0.752 1.161,1.161 0 0 0 -0.879,-0.376 1.208,1.208 0 0 0 -0.737,0.234 2,2 0 0 0 -0.654,0.884 4.636,4.636 0 0 0 -0.249,1.655 2.041,2.041 0 0 1 0.776,-0.718 2.088,2.088 0 0 1 0.962,-0.234 1.99,1.99 0 0 1 1.5,0.647 2.319,2.319 0 0 1 0.618,1.672 2.751,2.751 0 0 1 -0.29,1.252 2.116,2.116 0 0 1 -0.8,0.887 2.181,2.181 0 0 1 -1.152,0.308 2.253,2.253 0 0 1 -1.792,-0.808 4.083,4.083 0 0 1 -0.693,-2.664 4.776,4.776 0 0 1 0.767,-3.018 2.2,2.2 0 0 1 1.8,-0.82 1.918,1.918 0 0 1 2.031,1.782 z m -3.589,3.086 a 2.033,2.033 0 0 0 0.193,0.869 1.429,1.429 0 0 0 0.539,0.632 1.345,1.345 0 0 0 0.728,0.218 1.238,1.238 0 0 0 0.957,-0.449 1.77,1.77 0 0 0 0.4,-1.221 1.652,1.652 0 0 0 -0.4,-1.169 1.3,1.3 0 0 0 -1,-0.428 1.354,1.354 0 0 0 -1.011,0.428 1.54,1.54 0 0 0 -0.406,1.12 z"
     id="path81"
     inkscape:connector-curvature="0"
     style="fill:#53585f" />
  <path
     class="h"
     d="m 492.38627,93.409 v -0.884 h 2.7 v 0.884 z"
     id="path83"
     inkscape:connector-curvature="0"
     style="fill:#53585f" />
  <path
     class="h"
     d="m 501.38024,94.713 v 0.845 h -4.731 a 1.542,1.542 0 0 1 0.1,-0.61 3.217,3.217 0 0 1 0.581,-0.948 9.034,9.034 0 0 1 1.149,-1.084 9.75,9.75 0 0 0 1.577,-1.516 1.817,1.817 0 0 0 0.41,-1.058 1.18,1.18 0 0 0 -0.373,-0.882 1.354,1.354 0 0 0 -0.975,-0.358 1.373,1.373 0 0 0 -1.016,0.381 1.44,1.44 0 0 0 -0.386,1.055 l -0.9,-0.093 a 2.225,2.225 0 0 1 0.7,-1.541 2.384,2.384 0 0 1 1.626,-0.529 2.269,2.269 0 0 1 1.631,0.571 1.875,1.875 0 0 1 0.6,1.416 2.148,2.148 0 0 1 -0.176,0.845 3.283,3.283 0 0 1 -0.583,0.874 14.362,14.362 0 0 1 -1.355,1.26 q -0.791,0.664 -1.016,0.9 a 2.891,2.891 0 0 0 -0.371,0.476 z"
     id="path85"
     inkscape:connector-curvature="0"
     style="fill:#53585f" />
  <path
     class="h"
     d="m 501.9629,92.027 a 6.567,6.567 0 0 1 0.261,-2.044 2.547,2.547 0 0 1 0.777,-1.193 1.981,1.981 0 0 1 1.3,-0.42 2.109,2.109 0 0 1 1.011,0.232 1.925,1.925 0 0 1 0.718,0.668 3.608,3.608 0 0 1 0.444,1.064 7.079,7.079 0 0 1 0.161,1.692 6.565,6.565 0 0 1 -0.259,2.034 2.546,2.546 0 0 1 -0.773,1.2 1.983,1.983 0 0 1 -1.3,0.423 1.963,1.963 0 0 1 -1.632,-0.745 4.719,4.719 0 0 1 -0.708,-2.911 z m 0.9,0 a 4.5,4.5 0 0 0 0.412,2.347 1.18,1.18 0 0 0 2.037,0 6.885,6.885 0 0 0 0,-4.692 1.225,1.225 0 0 0 -1.028,-0.581 1.127,1.127 0 0 0 -0.967,0.513 4.541,4.541 0 0 0 -0.446,2.413 z"
     id="path87"
     inkscape:connector-curvature="0"
     style="fill:#53585f" />
  <path
     class="h"
     d="m 510.88834,95.558 h -0.879 v -5.6 a 4.548,4.548 0 0 1 -0.833,0.605 5.814,5.814 0 0 1 -0.925,0.454 v -0.85 a 5.321,5.321 0 0 0 1.289,-0.84 3.3,3.3 0 0 0 0.781,-0.957 h 0.566 z"
     id="path89"
     inkscape:connector-curvature="0"
     style="fill:#53585f" />
  <path
     class="h"
     d="m 517.80853,89.337 v -0.845 h 4.634 v 0.684 a 9.8,9.8 0 0 0 -1.355,1.934 11.784,11.784 0 0 0 -1.037,2.48 9.216,9.216 0 0 0 -0.337,1.968 h -0.9 a 8.755,8.755 0 0 1 0.332,-2.041 10.766,10.766 0 0 1 0.91,-2.307 9.9,9.9 0 0 1 1.263,-1.873 z"
     id="path91"
     inkscape:connector-curvature="0"
     style="fill:#53585f" />
  <path
     class="h"
     d="m 522.5578,93.258 0.894,-0.078 a 1.966,1.966 0 0 0 0.3,0.882 1.625,1.625 0 0 0 0.72,0.557 2.742,2.742 0 0 0 1.1,0.212 2.631,2.631 0 0 0 0.957,-0.161 1.33,1.33 0 0 0 0.617,-0.441 1.023,1.023 0 0 0 0.2,-0.613 0.931,0.931 0 0 0 -0.2,-0.588 1.443,1.443 0 0 0 -0.645,-0.423 12.425,12.425 0 0 0 -1.274,-0.349 6.551,6.551 0 0 1 -1.382,-0.447 1.933,1.933 0 0 1 -0.764,-0.666 1.633,1.633 0 0 1 -0.252,-0.892 1.816,1.816 0 0 1 0.308,-1.013 1.907,1.907 0 0 1 0.9,-0.716 3.4,3.4 0 0 1 1.313,-0.244 3.578,3.578 0 0 1 1.4,0.257 2.02,2.02 0 0 1 0.935,0.754 2.173,2.173 0 0 1 0.352,1.128 l -0.908,0.068 a 1.468,1.468 0 0 0 -0.5,-1.025 1.931,1.931 0 0 0 -1.248,-0.347 2.006,2.006 0 0 0 -1.252,0.314 0.946,0.946 0 0 0 -0.394,0.76 0.814,0.814 0 0 0 0.278,0.635 3.769,3.769 0 0 0 1.428,0.51 9.511,9.511 0 0 1 1.585,0.457 2.167,2.167 0 0 1 0.923,0.73 1.779,1.779 0 0 1 0.3,1.018 1.946,1.946 0 0 1 -0.327,1.076 2.15,2.15 0 0 1 -0.939,0.787 3.29,3.29 0 0 1 -1.38,0.28 4.122,4.122 0 0 1 -1.628,-0.283 2.28,2.28 0 0 1 -1.031,-0.853 2.419,2.419 0 0 1 -0.386,-1.286 z"
     id="path93"
     inkscape:connector-curvature="0"
     style="fill:#53585f" />
  <path
     class="h"
     d="m 527.3313,95.558 2.749,-7.158 h 1.021 l 2.93,7.158 h -1.079 l -0.835,-2.168 h -2.993 l -0.793,2.168 z m 2.065,-2.939 h 2.427 l -0.747,-1.982 q -0.341,-0.9 -0.508,-1.484 a 9.076,9.076 0 0 1 -0.386,1.367 z"
     id="path95"
     inkscape:connector-curvature="0"
     style="fill:#53585f" />
  <path
     class="h"
     d="M 532.99769,95.558 V 88.4 h 0.947 v 3.55 l 3.555,-3.55 h 1.286 l -3,2.9 3.135,4.258 h -1.25 l -2.549,-3.623 -1.172,1.143 v 2.48 z"
     id="path97"
     inkscape:connector-curvature="0"
     style="fill:#53585f" />
  <path
     class="h"
     d="m 543.10529,88.4 h 0.947 v 4.136 a 4.885,4.885 0 0 1 -0.244,1.714 2.1,2.1 0 0 1 -0.881,1.033 3.131,3.131 0 0 1 -1.673,0.4 3.433,3.433 0 0 1 -1.646,-0.347 1.979,1.979 0 0 1 -0.913,-1 4.77,4.77 0 0 1 -0.273,-1.794 V 88.4 h 0.947 v 4.13 a 4.041,4.041 0 0 0 0.173,1.375 1.321,1.321 0 0 0 0.6,0.681 2.073,2.073 0 0 0 1.033,0.239 1.975,1.975 0 0 0 1.489,-0.474 2.73,2.73 0 0 0 0.444,-1.821 z"
     id="path99"
     inkscape:connector-curvature="0"
     style="fill:#53585f" />
  <path
     class="h"
     d="M 543.35737,95.558 V 88.4 h 3.174 a 4.215,4.215 0 0 1 1.455,0.193 1.587,1.587 0 0 1 0.8,0.681 2.035,2.035 0 0 1 0.3,1.079 1.8,1.8 0 0 1 -0.493,1.284 2.5,2.5 0 0 1 -1.523,0.664 2.432,2.432 0 0 1 0.571,0.356 4.922,4.922 0 0 1 0.786,0.952 l 1.245,1.948 h -1.191 l -0.947,-1.489 q -0.415,-0.645 -0.684,-0.986 a 2.123,2.123 0 0 0 -0.481,-0.479 1.425,1.425 0 0 0 -0.432,-0.19 2.875,2.875 0 0 0 -0.527,-0.034 h -1.1 v 3.179 z m 0.947,-4 h 2.036 a 3.074,3.074 0 0 0 1.016,-0.134 1.086,1.086 0 0 0 0.557,-0.43 1.164,1.164 0 0 0 0.19,-0.643 1.067,1.067 0 0 0 -0.368,-0.835 1.729,1.729 0 0 0 -1.165,-0.327 h -2.27 z"
     id="path101"
     inkscape:connector-curvature="0"
     style="fill:#53585f" />
  <path
     class="h"
     d="m 548.44273,95.558 2.749,-7.158 h 1.021 l 2.93,7.158 h -1.078 l -0.835,-2.168 h -2.995 l -0.786,2.168 z m 2.065,-2.939 h 2.427 l -0.747,-1.982 q -0.341,-0.9 -0.508,-1.484 a 9.076,9.076 0 0 1 -0.386,1.367 z"
     id="path103"
     inkscape:connector-curvature="0"
     style="fill:#53585f" />
  <path
     class="h"
     d="M 556.59704,95.558 V 88.4 h 0.947 v 7.158 z"
     id="path105"
     inkscape:connector-curvature="0"
     style="fill:#53585f" />
  <path
     class="h"
     d="m 560.24101,95.558 v -5.186 h 0.791 v 0.737 a 1.864,1.864 0 0 1 1.65,-0.854 2.187,2.187 0 0 1 0.862,0.168 1.36,1.36 0 0 1 0.588,0.442 1.7,1.7 0 0 1 0.273,0.649 5.068,5.068 0 0 1 0.049,0.854 v 3.188 h -0.879 V 92.4 a 2.361,2.361 0 0 0 -0.1,-0.8 0.846,0.846 0 0 0 -0.364,-0.426 1.157,1.157 0 0 0 -0.612,-0.158 1.429,1.429 0 0 0 -0.97,0.356 1.759,1.759 0 0 0 -0.407,1.353 v 2.832 z"
     id="path107"
     inkscape:connector-curvature="0"
     style="fill:#53585f" />
  <path
     class="h"
     d="m 568.7638,94.771 0.127,0.776 a 3.281,3.281 0 0 1 -0.664,0.078 1.506,1.506 0 0 1 -0.742,-0.151 0.845,0.845 0 0 1 -0.371,-0.4 3.162,3.162 0 0 1 -0.107,-1.038 v -2.98 h -0.645 v -0.684 h 0.645 v -1.284 l 0.874,-0.527 v 1.812 h 0.884 v 0.684 h -0.884 v 3.032 a 1.555,1.555 0 0 0 0.046,0.483 0.368,0.368 0 0 0 0.152,0.171 0.585,0.585 0 0 0 0.3,0.063 2.909,2.909 0 0 0 0.385,-0.035 z"
     id="path109"
     inkscape:connector-curvature="0"
     style="fill:#53585f" />
  <path
     class="h"
     d="m 574.35666,93.888 0.908,0.112 a 2.217,2.217 0 0 1 -0.8,1.235 2.393,2.393 0 0 1 -1.484,0.439 2.367,2.367 0 0 1 -1.8,-0.7 2.733,2.733 0 0 1 -0.667,-1.965 2.865,2.865 0 0 1 0.674,-2.031 2.283,2.283 0 0 1 1.748,-0.723 2.218,2.218 0 0 1 1.7,0.708 2.812,2.812 0 0 1 0.659,1.992 c 0,0.052 0,0.13 0,0.234 h -3.867 a 1.99,1.99 0 0 0 0.483,1.309 1.44,1.44 0 0 0 1.084,0.454 1.346,1.346 0 0 0 0.825,-0.254 1.688,1.688 0 0 0 0.537,-0.81 z m -2.886,-1.421 h 2.9 a 1.752,1.752 0 0 0 -0.332,-0.981 1.346,1.346 0 0 0 -1.089,-0.508 1.4,1.4 0 0 0 -1.019,0.405 1.608,1.608 0 0 0 -0.46,1.084 z"
     id="path111"
     inkscape:connector-curvature="0"
     style="fill:#53585f" />
  <path
     class="h"
     d="m 576.77498,95.558 v -5.186 h 0.791 v 0.786 a 2.134,2.134 0 0 1 0.56,-0.728 0.972,0.972 0 0 1 0.563,-0.176 1.717,1.717 0 0 1 0.9,0.283 l -0.3,0.815 a 1.258,1.258 0 0 0 -0.645,-0.19 0.833,0.833 0 0 0 -0.518,0.174 0.936,0.936 0 0 0 -0.327,0.48 3.423,3.423 0 0 0 -0.146,1.025 v 2.715 z"
     id="path113"
     inkscape:connector-curvature="0"
     style="fill:#53585f" />
  <path
     class="h"
     d="m 581.35238,95.558 v -5.186 h 0.791 v 0.737 a 1.864,1.864 0 0 1 1.65,-0.854 2.187,2.187 0 0 1 0.862,0.168 1.36,1.36 0 0 1 0.588,0.442 1.7,1.7 0 0 1 0.273,0.649 5.068,5.068 0 0 1 0.049,0.854 v 3.188 h -0.879 V 92.4 a 2.361,2.361 0 0 0 -0.1,-0.8 0.846,0.846 0 0 0 -0.364,-0.426 1.157,1.157 0 0 0 -0.612,-0.158 1.429,1.429 0 0 0 -0.97,0.356 1.759,1.759 0 0 0 -0.407,1.353 v 2.832 z"
     id="path115"
     inkscape:connector-curvature="0"
     style="fill:#53585f" />
  <path
     class="h"
     d="m 590.19021,93.888 0.908,0.112 a 2.217,2.217 0 0 1 -0.8,1.235 2.393,2.393 0 0 1 -1.484,0.439 2.367,2.367 0 0 1 -1.8,-0.7 2.733,2.733 0 0 1 -0.667,-1.965 2.865,2.865 0 0 1 0.674,-2.031 2.283,2.283 0 0 1 1.748,-0.723 2.218,2.218 0 0 1 1.7,0.708 2.812,2.812 0 0 1 0.659,1.992 c 0,0.052 0,0.13 0,0.234 h -3.867 a 1.99,1.99 0 0 0 0.483,1.309 1.44,1.44 0 0 0 1.084,0.454 1.346,1.346 0 0 0 0.825,-0.254 1.688,1.688 0 0 0 0.537,-0.81 z m -2.886,-1.421 h 2.9 a 1.752,1.752 0 0 0 -0.332,-0.981 1.346,1.346 0 0 0 -1.089,-0.508 1.4,1.4 0 0 0 -1.019,0.405 1.608,1.608 0 0 0 -0.46,1.084 z"
     id="path117"
     inkscape:connector-curvature="0"
     style="fill:#53585f" />
  <path
     class="h"
     d="m 595.15208,94.771 0.127,0.776 a 3.281,3.281 0 0 1 -0.664,0.078 1.506,1.506 0 0 1 -0.742,-0.151 0.845,0.845 0 0 1 -0.371,-0.4 3.162,3.162 0 0 1 -0.107,-1.038 v -2.98 h -0.643 v -0.684 h 0.645 v -1.284 l 0.874,-0.527 v 1.812 h 0.884 v 0.684 h -0.884 v 3.032 a 1.555,1.555 0 0 0 0.046,0.483 0.368,0.368 0 0 0 0.152,0.171 0.585,0.585 0 0 0 0.3,0.063 2.909,2.909 0 0 0 0.383,-0.035 z"
     id="path119"
     inkscape:connector-curvature="0"
     style="fill:#53585f" />
  <path
     class="h"
     d="M 598.81993,95.558 V 88.4 h 0.947 v 7.158 z"
     id="path121"
     inkscape:connector-curvature="0"
     style="fill:#53585f" />
  <path
     class="h"
     d="m 602.46383,95.558 v -5.186 h 0.791 v 0.737 a 1.864,1.864 0 0 1 1.65,-0.854 2.187,2.187 0 0 1 0.862,0.168 1.36,1.36 0 0 1 0.588,0.442 1.7,1.7 0 0 1 0.273,0.649 5.068,5.068 0 0 1 0.049,0.854 v 3.188 h -0.879 V 92.4 a 2.361,2.361 0 0 0 -0.1,-0.8 0.846,0.846 0 0 0 -0.364,-0.426 1.157,1.157 0 0 0 -0.612,-0.158 1.429,1.429 0 0 0 -0.97,0.356 1.759,1.759 0 0 0 -0.407,1.353 v 2.832 z"
     id="path123"
     inkscape:connector-curvature="0"
     style="fill:#53585f" />
  <path
     class="h"
     d="m 611.24692,93.658 0.864,0.112 a 2.237,2.237 0 0 1 -0.726,1.4 2.106,2.106 0 0 1 -1.433,0.506 2.231,2.231 0 0 1 -1.712,-0.7 2.828,2.828 0 0 1 -0.646,-2 3.611,3.611 0 0 1 0.278,-1.47 1.947,1.947 0 0 1 0.847,-0.945 2.526,2.526 0 0 1 1.238,-0.314 2.15,2.15 0 0 1 1.382,0.428 1.952,1.952 0 0 1 0.688,1.213 l -0.854,0.132 a 1.414,1.414 0 0 0 -0.433,-0.786 1.116,1.116 0 0 0 -0.749,-0.264 1.362,1.362 0 0 0 -1.079,0.477 2.259,2.259 0 0 0 -0.415,1.506 2.338,2.338 0 0 0 0.4,1.519 1.3,1.3 0 0 0 1.045,0.474 1.231,1.231 0 0 0 0.864,-0.317 1.572,1.572 0 0 0 0.441,-0.971 z"
     id="path125"
     inkscape:connector-curvature="0"
     style="fill:#53585f" />
  <path
     class="h"
     d="M614.627,95.558v-1h1v1Z"
     id="path127" />
</svg>
